<svg width="218" height="218" viewBox="0 0 218 218" fill="none" xmlns="http://www.w3.org/2000/svg">
<g filter="url(#filter0_di_405_1848)">
<rect x="58" y="24" width="93.02" height="93.02" rx="4.651" fill="#4C43CD"/>
<rect x="58" y="24" width="93.02" height="93.02" rx="4.651" fill="url(#paint0_radial_405_1848)" fill-opacity="0.7"/>
<rect x="58" y="24" width="93.02" height="93.02" rx="4.651" fill="url(#paint1_radial_405_1848)"/>
<path d="M103.11 42.7777C103.11 42.3482 103.459 42 103.888 42H104.374C104.804 42 105.152 42.3482 105.152 42.7777V98.5812C105.152 99.0107 104.804 99.3589 104.374 99.3589H103.888C103.459 99.3589 103.11 99.0107 103.11 98.5812V42.7777Z" fill="white"/>
<path d="M126.037 47.0061C126.39 46.5957 127.01 46.5477 127.408 46.9146C130.117 49.4129 132.308 52.4237 133.854 55.7761C135.536 59.4255 136.413 63.3942 136.425 67.4125C136.437 71.4309 135.584 75.4048 133.924 79.0642C132.398 82.4258 130.225 85.4498 127.531 87.9643C127.136 88.3336 126.515 88.2893 126.16 87.881C125.805 87.4727 125.849 86.855 126.244 86.4847C128.726 84.1555 130.73 81.3599 132.139 78.2545C133.683 74.8512 134.476 71.1555 134.465 67.4184C134.454 63.6813 133.638 59.9905 132.074 56.5965C130.646 53.4996 128.626 50.7161 126.13 48.4019C125.733 48.0339 125.685 47.4166 126.037 47.0061Z" fill="white"/>
<path d="M119.643 53.475C119.951 53.1177 120.491 53.0756 120.834 53.3984C122.604 55.0642 124.039 57.0568 125.059 59.2692C126.198 61.7401 126.792 64.4273 126.8 67.148C126.808 69.8688 126.231 72.5595 125.107 75.0372C124.1 77.2556 122.677 79.2569 120.916 80.9332C120.575 81.2581 120.035 81.2193 119.726 80.8638C119.416 80.5084 119.456 79.971 119.795 79.6446C121.372 78.13 122.648 76.3277 123.553 74.3323C124.576 72.0775 125.101 69.6291 125.094 67.1532C125.086 64.6773 124.546 62.232 123.51 59.9834C122.593 57.9935 121.306 56.1989 119.72 54.6938C119.379 54.3694 119.336 53.8323 119.643 53.475Z" fill="white"/>
<path d="M116.631 56.8512C116.919 56.5153 117.427 56.4755 117.747 56.7822C119.06 58.043 120.128 59.5402 120.892 61.1978C121.768 63.0985 122.225 65.1655 122.231 67.2584C122.237 69.3513 121.793 71.421 120.928 73.327C120.174 74.9891 119.116 76.4927 117.81 77.7613C117.492 78.07 116.984 78.0332 116.693 77.699C116.403 77.3648 116.44 76.8599 116.755 76.5491C117.888 75.4331 118.808 74.1167 119.467 72.6642C120.237 70.968 120.632 69.1259 120.627 67.2632C120.621 65.4005 120.215 63.5609 119.435 61.8692C118.767 60.4208 117.839 59.1099 116.7 58.0008C116.382 57.6918 116.342 57.1872 116.631 56.8512Z" fill="white"/>
<path d="M113.164 59.722C113.463 59.3739 113.99 59.3321 114.315 59.6566C115.241 60.5815 115.997 61.6648 116.547 62.8573C117.212 64.3018 117.56 65.8727 117.564 67.4633C117.569 69.0539 117.231 70.6269 116.574 72.0755C116.032 73.2712 115.282 74.359 114.362 75.2895C114.039 75.6159 113.512 75.5773 113.21 75.231C112.909 74.8846 112.949 74.362 113.267 74.0313C114.009 73.2604 114.617 72.367 115.06 71.3886C115.619 70.1574 115.906 68.8203 115.902 67.4683C115.898 66.1163 115.603 64.781 115.037 63.5532C114.587 62.5775 113.975 61.6878 113.228 60.9213C112.907 60.5925 112.865 60.0702 113.164 59.722Z" fill="white"/>
<path d="M110.295 63.2541C110.569 62.9357 111.052 62.8967 111.337 63.2051C111.807 63.7131 112.194 64.2928 112.485 64.9237C112.882 65.7854 113.089 66.7224 113.092 67.6712C113.095 68.62 112.894 69.5583 112.502 70.4223C112.215 71.055 111.83 71.6369 111.364 72.1478C111.081 72.4579 110.597 72.4218 110.322 72.105C110.046 71.7883 110.085 71.3112 110.357 70.9916C110.664 70.6308 110.92 70.2279 111.117 69.7941C111.419 69.1288 111.574 68.4063 111.572 67.6758C111.57 66.9452 111.41 66.2237 111.104 65.5602C110.905 65.1276 110.646 64.7263 110.337 64.3673C110.063 64.0493 110.021 63.5725 110.295 63.2541Z" fill="white"/>
<path d="M123.053 50.3523C123.391 49.9591 123.985 49.9129 124.364 50.2663C126.595 52.3446 128.402 54.8398 129.681 57.6142C131.091 60.6731 131.826 63.9996 131.836 67.3678C131.846 70.736 131.131 74.0669 129.74 77.1342C128.477 79.9162 126.686 82.4223 124.467 84.5139C124.09 84.8695 123.496 84.827 123.155 84.4358C122.815 84.0447 122.858 83.4532 123.234 83.0962C125.25 81.1824 126.879 78.8951 128.03 76.3585C129.31 73.5366 129.968 70.4722 129.959 67.3734C129.949 64.2747 129.273 61.2143 127.976 58.4001C126.81 55.8705 125.167 53.5931 123.139 51.6914C122.761 51.3367 122.715 50.7454 123.053 50.3523Z" fill="white"/>
<path d="M82.3875 47.0061C82.0347 46.5957 81.4147 46.5477 81.0168 46.9146C78.308 49.4129 76.1165 52.4237 74.5712 55.7761C72.8891 59.4255 72.0122 63.3942 72.0001 67.4125C71.9881 71.4309 72.8411 75.4048 74.5013 79.0642C76.0263 82.4258 78.1997 85.4498 80.8935 87.9643C81.2892 88.3336 81.9095 88.2893 82.2647 87.881C82.6199 87.4727 82.5755 86.855 82.1808 86.4847C79.6987 84.1555 77.695 81.3599 76.2861 78.2545C74.7421 74.8512 73.9488 71.1555 73.96 67.4184C73.9713 63.6813 74.7868 59.9905 76.3511 56.5965C77.7786 53.4996 79.7992 50.7161 82.2952 48.4019C82.6921 48.0339 82.7402 47.4166 82.3875 47.0061Z" fill="white"/>
<path d="M88.7814 53.475C88.4743 53.1177 87.9342 53.0756 87.5911 53.3984C85.8208 55.0642 84.3853 57.0568 83.3656 59.2692C82.2266 61.7401 81.6329 64.4273 81.6247 67.148C81.6166 69.8688 82.1941 72.5595 83.3182 75.0372C84.3246 77.2556 85.7481 79.2569 87.5084 80.9332C87.8495 81.2581 88.3899 81.2193 88.6991 80.8638C89.0084 80.5084 88.9693 79.971 88.6295 79.6446C87.0532 78.13 85.7772 76.3277 84.872 74.3323C83.8491 72.0775 83.3235 69.6291 83.3309 67.1532C83.3383 64.6773 83.8786 62.232 84.9151 59.9834C85.8323 57.9935 87.1191 56.1989 88.7045 54.6938C89.0462 54.3694 89.0885 53.8323 88.7814 53.475Z" fill="white"/>
<path d="M91.7942 56.8512C91.5054 56.5153 90.9973 56.4755 90.6778 56.7822C89.3645 58.043 88.2971 59.5402 87.5331 61.1978C86.657 63.0985 86.2003 65.1655 86.194 67.2584C86.1877 69.3513 86.632 71.421 87.4966 73.327C88.2507 74.9891 89.3091 76.4927 90.6148 77.7613C90.9325 78.07 91.4408 78.0332 91.7315 77.699C92.0223 77.3648 91.9851 76.8599 91.6695 76.5491C90.5364 75.4331 89.6164 74.1167 88.9574 72.6642C88.1879 70.968 87.7925 69.1259 87.7981 67.2632C87.8037 65.4005 88.2101 63.5609 88.9899 61.8692C89.6575 60.4208 90.5854 59.1099 91.7252 58.0008C92.0427 57.6918 92.0829 57.1872 91.7942 56.8512Z" fill="white"/>
<path d="M95.2611 59.722C94.9618 59.3739 94.4345 59.3321 94.1098 59.6566C93.184 60.5815 92.4278 61.6648 91.8782 62.8573C91.2123 64.3018 90.8652 65.8727 90.8604 67.4633C90.8557 69.0539 91.1933 70.6269 91.8505 72.0755C92.3929 73.2712 93.1426 74.359 94.0628 75.2895C94.3856 75.6159 94.9132 75.5773 95.2145 75.231C95.5158 74.8846 95.4763 74.362 95.1578 74.0313C94.4154 73.2604 93.8083 72.367 93.3644 71.3886C92.8058 70.1574 92.5188 68.8203 92.5229 67.4683C92.5269 66.1163 92.822 64.781 93.3879 63.5532C93.8377 62.5775 94.4501 61.6878 95.1972 60.9213C95.5176 60.5925 95.5603 60.0702 95.2611 59.722Z" fill="white"/>
<path d="M98.1298 63.2541C97.8561 62.9357 97.3723 62.8967 97.0874 63.2051C96.6181 63.7131 96.2304 64.2928 95.9395 64.9237C95.5424 65.7854 95.3353 66.7224 95.3325 67.6712C95.3296 68.62 95.531 69.5583 95.923 70.4223C96.21 71.055 96.5943 71.6369 97.0605 72.1478C97.3436 72.4579 97.8276 72.4218 98.1032 72.105C98.3788 71.7883 98.3402 71.3112 98.0679 70.9916C97.7607 70.6308 97.5045 70.2279 97.3077 69.7941C97.0059 69.1288 96.8508 68.4063 96.853 67.6758C96.8552 66.9452 97.0146 66.2237 97.3204 65.5602C97.5198 65.1276 97.7784 64.7263 98.0878 64.3673C98.362 64.0493 98.4035 63.5725 98.1298 63.2541Z" fill="white"/>
<path d="M85.3719 50.3523C85.034 49.9591 84.4399 49.9129 84.0605 50.2663C81.8296 52.3446 80.0227 54.8398 78.7439 57.6142C77.3339 60.6731 76.5989 63.9996 76.5888 67.3678C76.5787 70.736 77.2937 74.0669 78.6853 77.1342C79.9474 79.9162 81.7392 82.4223 83.9577 84.5139C84.3349 84.8695 84.9292 84.827 85.2695 84.4358C85.6098 84.0447 85.567 83.4532 85.1911 83.0962C83.1753 81.1824 81.5458 78.8951 80.395 76.3585C79.1148 73.5366 78.457 70.4722 78.4663 67.3734C78.4756 64.2747 79.1518 61.2143 80.449 58.4001C81.615 55.8705 83.2582 53.5931 85.2854 51.6914C85.6635 51.3367 85.7099 50.7454 85.3719 50.3523Z" fill="white"/>
</g>
<defs>
<filter id="filter0_di_405_1848" x="0" y="0" width="217.02" height="217.02" filterUnits="userSpaceOnUse" color-interpolation-filters="sRGB">
<feFlood flood-opacity="0" result="BackgroundImageFix"/>
<feColorMatrix in="SourceAlpha" type="matrix" values="0 0 0 0 0 0 0 0 0 0 0 0 0 0 0 0 0 0 127 0" result="hardAlpha"/>
<feOffset dx="4" dy="38"/>
<feGaussianBlur stdDeviation="31"/>
<feColorMatrix type="matrix" values="0 0 0 0 0.129412 0 0 0 0 0.258824 0 0 0 0 0.666667 0 0 0 0.5 0"/>
<feBlend mode="normal" in2="BackgroundImageFix" result="effect1_dropShadow_405_1848"/>
<feBlend mode="normal" in="SourceGraphic" in2="effect1_dropShadow_405_1848" result="shape"/>
<feColorMatrix in="SourceAlpha" type="matrix" values="0 0 0 0 0 0 0 0 0 0 0 0 0 0 0 0 0 0 127 0" result="hardAlpha"/>
<feOffset dx="-3" dy="-4"/>
<feGaussianBlur stdDeviation="3.5"/>
<feComposite in2="hardAlpha" operator="arithmetic" k2="-1" k3="1"/>
<feColorMatrix type="matrix" values="0 0 0 0 1 0 0 0 0 1 0 0 0 0 1 0 0 0 0.15 0"/>
<feBlend mode="normal" in2="shape" result="effect2_innerShadow_405_1848"/>
</filter>
<radialGradient id="paint0_radial_405_1848" cx="0" cy="0" r="1" gradientUnits="userSpaceOnUse" gradientTransform="translate(82.5469 43.3792) rotate(51.0441) scale(78.0852 78.0852)">
<stop stop-color="white" stop-opacity="0.59"/>
<stop offset="0.697917" stop-color="white" stop-opacity="0"/>
<stop offset="1" stop-color="white" stop-opacity="0"/>
</radialGradient>
<radialGradient id="paint1_radial_405_1848" cx="0" cy="0" r="1" gradientUnits="userSpaceOnUse" gradientTransform="translate(138.278 105.393) rotate(-93.6705) scale(79.6179 88.7375)">
<stop stop-opacity="0.23"/>
<stop offset="0.861815" stop-opacity="0"/>
</radialGradient>
</defs>
</svg>
