<svg width="218" height="218" viewBox="0 0 218 218" fill="none" xmlns="http://www.w3.org/2000/svg">
<g filter="url(#filter0_di_405_1855)">
<rect x="58" y="24" width="93.02" height="93.02" rx="4.651" fill="#4C43CD"/>
<rect x="58" y="24" width="93.02" height="93.02" rx="4.651" fill="url(#paint0_radial_405_1855)" fill-opacity="0.7"/>
<rect x="58" y="24" width="93.02" height="93.02" rx="4.651" fill="url(#paint1_radial_405_1855)"/>
<path d="M84.9497 79.5779C85.9613 77.3187 88.0631 76.9422 88.0631 76.9422C88.0631 76.9422 92.9128 73.826 90.6235 71.7174C84.6458 65.5724 85.8039 63.9608 85.8039 63.9608C86.4558 41.8494 121.172 54.8775 107.014 75.3608C108.947 69.9136 110.113 58.6141 101.618 55.3006C91 51.1588 86.9418 62.2055 88.0631 63.9608C89.0915 65.571 93.384 65.0033 96.2715 66.22C108.245 71.2655 98.2294 81.2813 95.2172 80.3023C92.8074 79.5191 91.1506 81.1307 90.6235 82.0344C89.9959 83.1639 88.8054 85.1204 86.4558 85.3012C84.1063 85.4819 84.0051 81.6873 84.9497 79.5779Z" fill="white" stroke="white" stroke-width="1.2049" stroke-linecap="round"/>
<path d="M79.0258 64.1867C78.2727 54.2463 94.1624 39.4941 109.374 52.5896C116.302 58.5538 115.374 69.0817 114.043 73.6001C112.889 77.039 108.727 85.4081 101.316 91.3723C99.3886 92.8182 98.6306 93.9327 98.5302 94.234C91.8279 103.12 79.0258 101.313 80.6826 90.8452" stroke="white" stroke-width="1.35551" stroke-linecap="round"/>
<path d="M107.09 74.9089C105.809 80.331 105.388 80.6496 100.81 83.6558C98.5291 85.153 95.8443 85.5176 95.7776 85.7171C94.2801 92.1935 90.6527 96.6794 85.292 94.147" stroke="white" stroke-width="1.2049" stroke-linecap="round"/>
<path d="M113.565 48.1752L118.415 42.0001M118.415 55.9776L125.392 52.4456M121.219 65.6463L129.154 64.6947M121.219 74.9148L127.649 77.6953" stroke="white" stroke-width="1.35551" stroke-linecap="round"/>
</g>
<defs>
<filter id="filter0_di_405_1855" x="0" y="0" width="217.02" height="217.02" filterUnits="userSpaceOnUse" color-interpolation-filters="sRGB">
<feFlood flood-opacity="0" result="BackgroundImageFix"/>
<feColorMatrix in="SourceAlpha" type="matrix" values="0 0 0 0 0 0 0 0 0 0 0 0 0 0 0 0 0 0 127 0" result="hardAlpha"/>
<feOffset dx="4" dy="38"/>
<feGaussianBlur stdDeviation="31"/>
<feColorMatrix type="matrix" values="0 0 0 0 0.129412 0 0 0 0 0.258824 0 0 0 0 0.666667 0 0 0 0.5 0"/>
<feBlend mode="normal" in2="BackgroundImageFix" result="effect1_dropShadow_405_1855"/>
<feBlend mode="normal" in="SourceGraphic" in2="effect1_dropShadow_405_1855" result="shape"/>
<feColorMatrix in="SourceAlpha" type="matrix" values="0 0 0 0 0 0 0 0 0 0 0 0 0 0 0 0 0 0 127 0" result="hardAlpha"/>
<feOffset dx="-3" dy="-4"/>
<feGaussianBlur stdDeviation="3.5"/>
<feComposite in2="hardAlpha" operator="arithmetic" k2="-1" k3="1"/>
<feColorMatrix type="matrix" values="0 0 0 0 1 0 0 0 0 1 0 0 0 0 1 0 0 0 0.15 0"/>
<feBlend mode="normal" in2="shape" result="effect2_innerShadow_405_1855"/>
</filter>
<radialGradient id="paint0_radial_405_1855" cx="0" cy="0" r="1" gradientUnits="userSpaceOnUse" gradientTransform="translate(82.5469 43.3792) rotate(51.0441) scale(78.0852 78.0852)">
<stop stop-color="white" stop-opacity="0.59"/>
<stop offset="0.697917" stop-color="white" stop-opacity="0"/>
<stop offset="1" stop-color="white" stop-opacity="0"/>
</radialGradient>
<radialGradient id="paint1_radial_405_1855" cx="0" cy="0" r="1" gradientUnits="userSpaceOnUse" gradientTransform="translate(138.278 105.393) rotate(-93.6705) scale(79.6179 88.7375)">
<stop stop-opacity="0.23"/>
<stop offset="0.861815" stop-opacity="0"/>
</radialGradient>
</defs>
</svg>
